<svg width="41" height="31" viewBox="0 0 41 31" fill="none" xmlns="http://www.w3.org/2000/svg">
<path d="M36.9022 2.54498C37.2397 2.54498 37.5634 2.67905 37.802 2.91769C38.0406 3.15632 38.1747 3.47999 38.1747 3.81747V26.7223C38.1747 27.0598 38.0406 27.3834 37.802 27.6221C37.5634 27.8607 37.2397 27.9948 36.9022 27.9948H3.81747C3.47999 27.9948 3.15632 27.8607 2.91768 27.6221C2.67905 27.3834 2.54498 27.0598 2.54498 26.7223V3.81747C2.54498 3.47999 2.67905 3.15632 2.91768 2.91769C3.15632 2.67905 3.47999 2.54498 3.81747 2.54498H36.9022ZM3.81747 0C2.80502 0 1.83403 0.402197 1.11811 1.11811C0.402197 1.83403 0 2.80502 0 3.81747L0 26.7223C0 27.7348 0.402197 28.7057 1.11811 29.4217C1.83403 30.1376 2.80502 30.5398 3.81747 30.5398H36.9022C37.9147 30.5398 38.8857 30.1376 39.6016 29.4217C40.3175 28.7057 40.7197 27.7348 40.7197 26.7223V3.81747C40.7197 2.80502 40.3175 1.83403 39.6016 1.11811C38.8857 0.402197 37.9147 0 36.9022 0H3.81747Z" fill="black"/>
<path d="M12.7249 15.2698C12.7249 14.9323 12.859 14.6087 13.0976 14.37C13.3363 14.1314 13.6599 13.9973 13.9974 13.9973H31.8123C32.1498 13.9973 32.4734 14.1314 32.7121 14.37C32.9507 14.6087 33.0848 14.9323 33.0848 15.2698C33.0848 15.6073 32.9507 15.931 32.7121 16.1696C32.4734 16.4083 32.1498 16.5423 31.8123 16.5423H13.9974C13.6599 16.5423 13.3363 16.4083 13.0976 16.1696C12.859 15.931 12.7249 15.6073 12.7249 15.2698ZM12.7249 8.90738C12.7249 8.56989 12.859 8.24623 13.0976 8.00759C13.3363 7.76895 13.6599 7.63489 13.9974 7.63489H31.8123C32.1498 7.63489 32.4734 7.76895 32.7121 8.00759C32.9507 8.24623 33.0848 8.56989 33.0848 8.90738C33.0848 9.24486 32.9507 9.56853 32.7121 9.80716C32.4734 10.0458 32.1498 10.1799 31.8123 10.1799H13.9974C13.6599 10.1799 13.3363 10.0458 13.0976 9.80716C12.859 9.56853 12.7249 9.24486 12.7249 8.90738ZM12.7249 21.6323C12.7249 21.2948 12.859 20.9711 13.0976 20.7325C13.3363 20.4939 13.6599 20.3598 13.9974 20.3598H31.8123C32.1498 20.3598 32.4734 20.4939 32.7121 20.7325C32.9507 20.9711 33.0848 21.2948 33.0848 21.6323C33.0848 21.9698 32.9507 22.2934 32.7121 22.5321C32.4734 22.7707 32.1498 22.9048 31.8123 22.9048H13.9974C13.6599 22.9048 13.3363 22.7707 13.0976 22.5321C12.859 22.2934 12.7249 21.9698 12.7249 21.6323ZM10.1799 8.90738C10.1799 9.24486 10.0459 9.56853 9.80723 9.80716C9.56859 10.0458 9.24492 10.1799 8.90744 10.1799C8.56995 10.1799 8.24629 10.0458 8.00765 9.80716C7.76901 9.56853 7.63495 9.24486 7.63495 8.90738C7.63495 8.56989 7.76901 8.24623 8.00765 8.00759C8.24629 7.76895 8.56995 7.63489 8.90744 7.63489C9.24492 7.63489 9.56859 7.76895 9.80723 8.00759C10.0459 8.24623 10.1799 8.56989 10.1799 8.90738ZM10.1799 15.2698C10.1799 15.6073 10.0459 15.931 9.80723 16.1696C9.56859 16.4083 9.24492 16.5423 8.90744 16.5423C8.56995 16.5423 8.24629 16.4083 8.00765 16.1696C7.76901 15.931 7.63495 15.6073 7.63495 15.2698C7.63495 14.9323 7.76901 14.6087 8.00765 14.37C8.24629 14.1314 8.56995 13.9973 8.90744 13.9973C9.24492 13.9973 9.56859 14.1314 9.80723 14.37C10.0459 14.6087 10.1799 14.9323 10.1799 15.2698ZM10.1799 21.6323C10.1799 21.9698 10.0459 22.2934 9.80723 22.5321C9.56859 22.7707 9.24492 22.9048 8.90744 22.9048C8.56995 22.9048 8.24629 22.7707 8.00765 22.5321C7.76901 22.2934 7.63495 21.9698 7.63495 21.6323C7.63495 21.2948 7.76901 20.9711 8.00765 20.7325C8.24629 20.4939 8.56995 20.3598 8.90744 20.3598C9.24492 20.3598 9.56859 20.4939 9.80723 20.7325C10.0459 20.9711 10.1799 21.2948 10.1799 21.6323Z" fill="black"/>
</svg>
