<svg width="48" height="29" viewBox="0 0 48 29" fill="none" xmlns="http://www.w3.org/2000/svg">
<path d="M16.5718 5.32666C16.5718 8.26934 14.1878 10.6533 11.2451 10.6533C10.5456 10.6535 9.85285 10.5158 9.20652 10.2482C8.56019 9.98053 7.97292 9.58818 7.47827 9.09352C6.98361 8.59887 6.59126 8.0116 6.32362 7.36527C6.05599 6.71894 5.91832 6.02621 5.91847 5.32666C5.91847 2.38398 8.30245 0 11.2451 0C14.1878 0 16.5718 2.38398 16.5718 5.32666Z" fill="black"/>
<path d="M0 19.3337C0 15.1363 7.49283 13.021 11.2452 13.021C14.9975 13.021 22.4903 15.1363 22.4903 19.3337V28.4091H0V19.3337Z" fill="black"/>
<path d="M41.4296 5.32666C41.4296 8.26934 39.0456 10.6533 36.1029 10.6533C35.4034 10.6535 34.7106 10.5158 34.0643 10.2482C33.418 9.98053 32.8307 9.58818 32.336 9.09352C31.8414 8.59887 31.449 8.0116 31.1814 7.36527C30.9138 6.71894 30.7761 6.02621 30.7762 5.32666C30.7762 2.38398 33.1602 0 36.1029 0C39.0456 0 41.4296 2.38398 41.4296 5.32666Z" fill="black"/>
<path d="M27.2251 3.55111C27.2251 4.49292 26.851 5.39616 26.185 6.06212C25.5191 6.72808 24.6158 7.10221 23.674 7.10221C22.7322 7.10221 21.829 6.72808 21.163 6.06212C20.497 5.39616 20.1229 4.49292 20.1229 3.55111C20.1229 2.60929 20.497 1.70606 21.163 1.04009C21.829 0.374133 22.7322 0 23.674 0C24.6158 0 25.5191 0.374133 26.185 1.04009C26.851 1.70606 27.2251 2.60929 27.2251 3.55111Z" fill="black"/>
<path d="M24.8578 19.3337C24.8578 15.1363 32.3506 13.021 36.1029 13.021C39.8553 13.021 47.3481 15.1363 47.3481 19.3337V28.4091H24.8578V19.3337Z" fill="black"/>
<path fill-rule="evenodd" clip-rule="evenodd" d="M29.2966 12.0561C28.9818 12.1721 28.6693 12.2952 28.3639 12.4266C26.9789 13.0185 25.5786 13.8187 24.4908 14.8887C24.1996 15.1764 23.9226 15.49 23.674 15.8321C23.4279 15.496 23.1547 15.1805 22.8573 14.8887C21.7695 13.8187 20.3703 13.0185 18.983 12.4266C18.6753 12.2951 18.3643 12.1716 18.0503 12.0561C19.8531 11.1222 22.1707 10.6534 23.674 10.6534C25.1773 10.6534 27.495 11.1222 29.2966 12.0561Z" fill="black"/>
</svg>
