<svg width="34" height="38" viewBox="0 0 34 38" fill="none" xmlns="http://www.w3.org/2000/svg">
<path d="M6.78662 8.48327C6.78662 8.03329 6.96538 7.60174 7.28356 7.28356C7.60174 6.96538 8.03329 6.78662 8.48328 6.78662H25.4498C25.8998 6.78662 26.3313 6.96538 26.6495 7.28356C26.9677 7.60174 27.1465 8.03329 27.1465 8.48327C27.1465 8.93326 26.9677 9.36481 26.6495 9.68299C26.3313 10.0012 25.8998 10.1799 25.4498 10.1799H8.48328C8.03329 10.1799 7.60174 10.0012 7.28356 9.68299C6.96538 9.36481 6.78662 8.93326 6.78662 8.48327Z" fill="black"/>
<path d="M6.78662 15.2699C6.78662 14.8199 6.96538 14.3884 7.28356 14.0702C7.60174 13.752 8.03329 13.5732 8.48328 13.5732H25.4498C25.8998 13.5732 26.3313 13.752 26.6495 14.0702C26.9677 14.3884 27.1465 14.8199 27.1465 15.2699C27.1465 15.7199 26.9677 16.1514 26.6495 16.4696C26.3313 16.7878 25.8998 16.9666 25.4498 16.9666H8.48328C8.03329 16.9666 7.60174 16.7878 7.28356 16.4696C6.96538 16.1514 6.78662 15.7199 6.78662 15.2699Z" fill="black"/>
<path d="M8.48328 20.3599C8.03329 20.3599 7.60174 20.5386 7.28356 20.8568C6.96538 21.175 6.78662 21.6065 6.78662 22.0565C6.78662 22.5065 6.96538 22.938 7.28356 23.2562C7.60174 23.5744 8.03329 23.7532 8.48328 23.7532H25.4498C25.8998 23.7532 26.3313 23.5744 26.6495 23.2562C26.9677 22.938 27.1465 22.5065 27.1465 22.0565C27.1465 21.6065 26.9677 21.175 26.6495 20.8568C26.3313 20.5386 25.8998 20.3599 25.4498 20.3599H8.48328Z" fill="black"/>
<path d="M6.78662 28.8431C6.78662 28.3932 6.96538 27.9616 7.28356 27.6434C7.60174 27.3252 8.03329 27.1465 8.48328 27.1465H15.2699C15.7199 27.1465 16.1514 27.3252 16.4696 27.6434C16.7878 27.9616 16.9665 28.3932 16.9665 28.8431C16.9665 29.2931 16.7878 29.7247 16.4696 30.0429C16.1514 30.361 15.7199 30.5398 15.2699 30.5398H8.48328C8.03329 30.5398 7.60174 30.361 7.28356 30.0429C6.96538 29.7247 6.78662 29.2931 6.78662 28.8431Z" fill="black"/>
<path fill-rule="evenodd" clip-rule="evenodd" d="M0 5.08996C0 3.74002 0.536263 2.44537 1.49082 1.49082C2.44537 0.536262 3.74002 0 5.08996 0H28.8431C30.1931 0 31.4877 0.536262 32.4423 1.49082C33.3968 2.44537 33.9331 3.74002 33.9331 5.08996V32.2364C33.9331 33.5864 33.3968 34.881 32.4423 35.8356C31.4877 36.7901 30.1931 37.3264 28.8431 37.3264H5.08996C3.74002 37.3264 2.44537 36.7901 1.49082 35.8356C0.536263 34.881 0 33.5864 0 32.2364V5.08996ZM5.08996 3.39331H28.8431C29.2931 3.39331 29.7247 3.57206 30.0428 3.89025C30.361 4.20843 30.5398 4.63998 30.5398 5.08996V32.2364C30.5398 32.6864 30.361 33.118 30.0428 33.4361C29.7247 33.7543 29.2931 33.9331 28.8431 33.9331H5.08996C4.63998 33.9331 4.20843 33.7543 3.89025 33.4361C3.57206 33.118 3.39331 32.6864 3.39331 32.2364V5.08996C3.39331 4.63998 3.57206 4.20843 3.89025 3.89025C4.20843 3.57206 4.63998 3.39331 5.08996 3.39331Z" fill="black"/>
</svg>
