<svg width="43" height="38" viewBox="0 0 43 38" fill="none" xmlns="http://www.w3.org/2000/svg">
<path fill-rule="evenodd" clip-rule="evenodd" d="M9.25933 26.423C10.6712 28.7237 12.7101 30.5794 15.1396 31.7747C17.5692 32.9701 20.2898 33.4563 22.986 33.1769C25.6822 32.8974 28.2434 31.8638 30.3727 30.1959C32.502 28.5281 34.1122 26.2942 35.0163 23.7535H40.0091C39.093 27.2741 37.1802 30.4594 34.4978 32.9317C31.8155 35.404 28.476 37.0593 24.8758 37.7014C21.2756 38.3434 17.5656 37.9452 14.1862 36.554C10.8067 35.1628 7.89961 32.837 5.80978 29.8526L0 35.6286V21.3785H14.3333L9.25933 26.423ZM33.7431 11.5816C32.3305 9.28055 30.2908 7.42475 27.8606 6.22934C25.4303 5.03393 22.709 4.54789 20.0122 4.82756C17.3154 5.10724 14.7535 6.14118 12.6237 7.80949C10.4939 9.47781 8.88338 11.7122 7.97889 14.2534H2.98611C3.90192 10.7315 5.81479 7.54478 8.49774 5.07132C11.1807 2.59787 14.5211 0.941574 18.1225 0.298986C21.7239 -0.343601 25.4351 0.0544985 28.8157 1.44604C32.1964 2.83759 35.1045 5.16416 37.195 8.14965L43 2.37836V16.6285H28.6667L33.7431 11.5816Z" fill="black"/>
</svg>
