<svg width="26" height="18" viewBox="0 0 26 18" fill="none" xmlns="http://www.w3.org/2000/svg">
<path d="M24.52 7.2H1.47999C0.486394 7.2 0.399994 8.0046 0.399994 9C0.399994 9.9954 0.486394 10.8 1.47999 10.8H24.52C25.5136 10.8 25.6 9.9954 25.6 9C25.6 8.0046 25.5136 7.2 24.52 7.2V7.2ZM24.52 14.4H1.47999C0.486394 14.4 0.399994 15.2046 0.399994 16.2C0.399994 17.1954 0.486394 18 1.47999 18H24.52C25.5136 18 25.6 17.1954 25.6 16.2C25.6 15.2046 25.5136 14.4 24.52 14.4V14.4ZM1.47999 3.6H24.52C25.5136 3.6 25.6 2.7954 25.6 1.8C25.6 0.8046 25.5136 0 24.52 0H1.47999C0.486394 0 0.399994 0.8046 0.399994 1.8C0.399994 2.7954 0.486394 3.6 1.47999 3.6Z" fill="white"/>
</svg>
